<?xml version="1.0" encoding="UTF-8" standalone="no"?>
<svg
   xmlns:dc="http://purl.org/dc/elements/1.1/"
   xmlns:cc="http://creativecommons.org/ns#"
   xmlns:rdf="http://www.w3.org/1999/02/22-rdf-syntax-ns#"
   xmlns:svg="http://www.w3.org/2000/svg"
   xmlns="http://www.w3.org/2000/svg"
   xmlns:sodipodi="http://sodipodi.sourceforge.net/DTD/sodipodi-0.dtd"
   xmlns:inkscape="http://www.inkscape.org/namespaces/inkscape"
   width="600px"
   height="140px"
   viewBox="0 0 2070 483"
   version="1.1"
   id="svg2"
   inkscape:version="0.48.3.1 r9886"
   sodipodi:docname="banner.svg">
  <metadata
     id="metadata78">
    <rdf:RDF>
      <cc:Work
         rdf:about="">
        <dc:format>image/svg+xml</dc:format>
        <dc:type
           rdf:resource="http://purl.org/dc/dcmitype/StillImage" />
        <dc:title></dc:title>
      </cc:Work>
    </rdf:RDF>
  </metadata>
  <defs
     id="defs76" />
  <path
     fill="#0a0804"
     d=" M 1113.55 48.43 C 1118.48 46.41 1124.12 48.73 1127.44 52.59 C 1132.55 58.50 1135.12 66.05 1137.41 73.39 C 1144.52 96.82 1149.97 120.74 1153.74 144.93 C 1158.35 172.18 1162.11 199.66 1169.52 226.34 C 1175.38 246.14 1182.39 265.61 1187.46 285.65 C 1194.59 311.29 1197.89 337.74 1203.01 363.81 C 1205.22 375.36 1208.15 386.74 1210.93 398.16 C 1212.33 403.54 1213.40 409.09 1215.97 414.08 C 1217.89 418.31 1220.63 422.31 1221.30 426.99 C 1221.68 431.05 1217.65 434.03 1213.98 434.39 C 1209.89 434.27 1206.15 432.10 1202.04 432.17 C 1188.12 431.89 1174.88 436.95 1161.20 438.68 C 1156.40 439.13 1150.84 440.10 1146.54 437.57 C 1142.10 429.18 1139.86 419.84 1137.18 410.78 L 1136.96 409.96 C 1133.72 395.00 1131.34 379.88 1129.17 364.74 L 1129.00 363.38 C 1125.69 338.98 1122.55 314.20 1113.74 291.05 C 1110.29 295.30 1107.30 299.90 1104.90 304.81 C 1098.48 315.97 1092.76 327.51 1086.95 338.99 C 1085.35 341.49 1083.03 343.64 1082.67 346.74 C 1082.21 347.55 1081.74 348.37 1081.29 349.18 C 1078.44 353.87 1075.66 358.60 1072.76 363.25 C 1069.86 367.80 1066.63 372.13 1063.09 376.20 C 1058.32 376.31 1053.55 376.41 1048.78 376.58 C 1018.71 343.00 992.72 305.89 970.20 266.87 C 969.72 266.03 969.09 265.35 968.30 264.83 C 966.78 270.47 965.34 276.14 963.84 281.79 C 955.61 314.37 950.97 347.74 946.25 380.98 C 945.44 385.76 945.45 390.69 944.22 395.39 C 940.45 399.32 935.45 402.15 932.90 407.20 C 924.19 408.31 915.54 409.94 907.00 411.97 C 906.51 412.07 905.54 412.27 905.05 412.37 C 890.24 414.89 875.49 419.08 860.34 418.38 C 864.26 402.03 868.93 385.86 872.84 369.51 C 887.31 313.11 902.42 256.87 916.47 200.36 C 927.99 154.06 948.31 110.64 962.06 65.05 C 963.85 60.22 962.23 54.19 966.00 50.18 C 968.31 47.38 972.17 48.77 974.91 50.06 C 980.99 53.29 984.70 59.50 987.48 65.57 C 991.94 75.70 994.71 86.45 997.64 97.09 C 999.35 103.78 1002.12 110.13 1004.42 116.63 C 1022.28 164.46 1040.40 212.23 1061.43 258.77 C 1061.64 258.75 1062.07 258.70 1062.28 258.67 C 1080.94 188.98 1089.64 116.72 1113.55 48.43 Z"
     id="path6" />
  <path
     fill="#0a0804"
     d=" M 1799.98 56.04 C 1814.55 57.58 1828.67 52.24 1843.09 51.21 C 1848.19 50.65 1853.66 50.49 1858.44 52.68 C 1862.53 54.78 1863.27 59.78 1863.70 63.91 C 1865.28 74.57 1862.79 85.29 1863.49 95.99 C 1870.14 145.72 1872.24 195.92 1874.34 246.00 C 1874.70 267.00 1875.71 287.98 1875.61 308.99 C 1874.94 310.81 1872.61 311.25 1871.08 312.16 C 1861.85 315.72 1851.67 314.97 1842.00 314.37 C 1827.74 269.67 1822.04 222.95 1813.70 176.94 C 1807.06 139.72 1800.14 102.56 1793.46 65.36 C 1793.06 62.24 1791.69 59.04 1792.54 55.91 C 1794.11 52.50 1797.52 55.88 1799.98 56.04 Z"
     id="path8" />
  <path
     fill="#fac802"
     d=" M 1805.23 70.16 C 1819.71 66.51 1834.76 65.76 1849.62 66.63 C 1858.14 115.91 1860.66 166.02 1860.86 215.97 C 1860.76 221.00 1860.94 226.02 1861.17 231.04 C 1860.60 251.54 1860.92 272.06 1860.51 292.57 C 1856.70 294.05 1852.00 292.92 1849.73 289.40 C 1846.43 284.24 1845.91 277.98 1844.46 272.16 C 1828.99 205.32 1817.43 137.65 1805.23 70.16 Z"
     id="path10" />
  <path
     fill="#fac802"
     d=" M 973.45 74.37 C 974.38 74.42 975.32 74.47 976.28 74.52 C 995.61 129.61 1017.31 183.84 1036.16 239.10 C 1040.33 251.98 1044.07 265.27 1051.33 276.83 C 1054.12 280.81 1057.76 285.38 1063.09 285.43 C 1067.97 285.14 1072.16 281.29 1073.78 276.80 C 1077.18 268.11 1079.08 258.92 1081.17 249.85 C 1092.13 196.83 1100.67 143.20 1115.70 91.11 C 1117.67 85.35 1118.80 79.24 1121.49 73.77 C 1129.80 94.06 1134.52 115.57 1138.87 136.99 C 1144.39 164.65 1148.49 192.60 1154.97 220.06 C 1159.31 239.14 1166.21 257.50 1170.71 276.54 C 1182.51 323.32 1190.01 371.05 1201.91 417.80 C 1187.01 420.74 1172.15 425.72 1156.77 424.30 C 1148.89 404.43 1146.43 383.01 1142.79 362.09 C 1140.70 347.62 1137.25 333.40 1135.07 318.94 C 1132.91 306.31 1131.02 293.47 1126.31 281.47 C 1123.15 273.21 1118.03 265.57 1110.77 260.39 C 1092.07 292.45 1081.39 329.00 1058.54 358.65 C 1057.83 360.14 1055.88 360.41 1054.94 359.00 C 1029.77 336.50 1011.00 308.05 993.29 279.60 C 987.23 269.46 984.05 257.64 976.44 248.45 C 972.35 244.13 967.21 239.76 960.98 239.55 C 957.98 239.37 956.71 242.49 955.94 244.84 C 952.68 255.30 952.14 266.33 950.49 277.10 C 944.73 312.24 936.87 347.00 930.81 382.09 C 930.20 384.75 930.66 388.37 927.74 389.76 C 913.25 399.43 895.19 401.72 878.13 401.48 C 881.93 385.39 886.64 369.51 890.64 353.47 C 915.31 259.63 937.70 164.79 973.45 74.37 Z"
     id="path12" />
  <path
     fill="#0a0804"
     d=" M 1700.40 137.59 C 1716.53 135.63 1733.29 134.37 1748.05 126.95 C 1750.64 125.71 1752.40 128.86 1752.97 130.94 C 1755.03 139.50 1753.45 148.29 1753.67 156.97 C 1754.65 180.42 1757.83 203.71 1760.81 226.98 C 1767.92 286.07 1771.00 345.92 1785.01 403.96 C 1786.09 409.45 1787.88 414.75 1789.53 420.09 C 1776.35 423.77 1762.70 426.52 1748.94 425.72 C 1746.60 425.41 1743.87 425.68 1741.92 424.20 C 1738.54 415.43 1736.42 406.21 1734.12 397.10 C 1727.50 367.20 1725.32 336.55 1719.60 306.50 C 1719.55 306.32 1719.45 305.98 1719.40 305.81 C 1701.61 299.48 1682.63 304.47 1664.31 303.34 C 1664.16 327.37 1666.20 351.41 1670.31 375.08 C 1670.87 378.82 1671.61 382.53 1672.69 386.16 C 1673.45 389.24 1674.20 392.32 1674.87 395.42 C 1676.06 401.79 1678.73 407.74 1680.33 414.00 C 1678.61 417.24 1674.57 418.26 1671.29 419.16 C 1661.66 421.15 1651.70 421.11 1641.95 420.21 C 1636.31 419.33 1630.27 418.79 1625.39 415.59 C 1619.22 410.59 1619.39 401.90 1619.22 394.68 C 1619.30 385.97 1619.31 377.26 1618.34 368.59 C 1615.44 341.65 1610.51 314.96 1607.84 288.00 C 1603.49 238.10 1597.82 188.33 1591.65 138.63 C 1606.19 138.59 1620.87 142.88 1635.28 139.23 C 1635.63 139.71 1636.33 140.66 1636.68 141.13 C 1641.54 150.29 1642.81 160.81 1644.04 170.96 C 1646.77 194.83 1645.31 219.80 1654.63 242.43 C 1673.60 246.36 1692.51 239.68 1711.49 239.42 C 1708.64 205.38 1701.35 171.78 1700.40 137.59 Z"
     id="path14" />
  <path
     fill="#0a0804"
     d=" M 1438.02 139.13 C 1458.77 131.71 1481.10 129.57 1503.02 130.57 C 1515.59 131.23 1528.19 132.89 1540.23 136.67 C 1540.50 145.78 1543.49 154.48 1545.64 163.26 C 1548.21 173.49 1551.26 184.18 1548.89 194.76 C 1538.77 196.56 1530.96 187.43 1520.98 188.20 C 1519.27 188.42 1517.07 188.01 1515.98 189.61 C 1525.90 195.15 1537.14 197.40 1547.60 201.60 C 1557.01 205.27 1564.29 212.73 1569.88 220.94 C 1579.67 235.33 1585.69 252.04 1589.15 269.02 C 1593.31 291.56 1591.59 315.33 1583.81 336.91 C 1579.50 347.94 1573.73 358.42 1566.21 367.60 C 1558.56 377.07 1549.00 385.00 1538.40 390.98 C 1505.85 409.70 1466.54 412.50 1430.04 406.97 C 1423.12 390.20 1416.85 372.98 1414.05 354.99 C 1413.00 346.23 1412.56 337.18 1414.76 328.55 C 1416.81 329.35 1418.89 330.16 1421.00 330.87 C 1440.82 337.83 1462.85 334.70 1481.97 326.97 C 1497.40 320.42 1512.32 310.28 1520.23 295.07 C 1525.76 284.63 1525.85 271.92 1522.15 260.87 C 1518.66 250.34 1509.69 242.59 1499.82 238.13 C 1473.08 225.99 1442.13 228.29 1415.63 215.52 C 1408.36 211.77 1401.62 206.12 1398.50 198.37 C 1394.38 188.59 1396.55 177.32 1401.07 168.07 C 1408.46 153.55 1423.20 144.62 1438.02 139.13 Z"
     id="path16" />
  <path
     fill="#b21f14"
     d=" M 1591.38 138.47 C 1601.98 137.78 1612.37 140.78 1622.96 140.40 C 1627.35 140.53 1631.66 139.52 1636.02 139.01 C 1636.18 139.54 1636.52 140.60 1636.68 141.13 C 1636.33 140.66 1635.63 139.71 1635.28 139.23 C 1620.87 142.88 1606.19 138.59 1591.65 138.63 C 1597.82 188.33 1603.49 238.10 1607.84 288.00 C 1610.51 314.96 1615.44 341.65 1618.34 368.59 C 1600.95 368.67 1583.59 367.86 1566.21 367.60 C 1573.73 358.42 1579.50 347.94 1583.81 336.91 C 1583.67 337.53 1583.41 338.77 1583.28 339.39 C 1593.61 338.70 1603.98 338.82 1614.30 339.85 C 1610.67 315.35 1607.42 290.78 1605.53 266.08 C 1601.57 223.47 1596.48 180.96 1591.38 138.47 Z"
     id="path18" />
  <path
     fill="#0a0804"
     d=" M 1278.46 147.48 C 1282.09 143.50 1287.12 147.73 1291.09 148.96 C 1315.70 185.19 1334.37 225.02 1351.90 265.03 C 1363.63 292.19 1374.80 319.60 1386.19 346.91 C 1394.31 367.57 1403.84 387.67 1412.79 407.97 C 1406.26 412.82 1397.85 413.45 1390.00 413.55 C 1382.62 413.58 1375.15 413.46 1367.92 415.13 C 1365.04 415.75 1362.41 417.26 1359.50 417.66 C 1352.49 411.59 1348.99 402.64 1346.00 394.10 C 1339.88 375.33 1337.71 354.93 1326.95 337.94 C 1318.49 338.47 1309.91 339.14 1301.81 341.78 C 1298.88 361.72 1298.26 381.93 1297.10 402.03 C 1296.71 404.59 1293.85 405.66 1291.88 406.85 C 1282.52 411.19 1271.93 408.84 1262.02 409.10 C 1254.53 409.06 1248.44 414.75 1240.99 414.88 C 1237.34 414.97 1236.01 410.78 1235.53 407.85 C 1234.51 398.92 1235.45 389.88 1236.77 381.03 C 1238.85 365.69 1241.57 350.42 1242.62 334.96 C 1249.23 287.63 1265.31 242.22 1272.49 194.99 C 1274.18 182.75 1275.96 170.40 1275.19 158.02 C 1275.02 154.28 1275.08 149.89 1278.46 147.48 Z"
     id="path20" />
  <path
     fill="#fac802"
     d=" M 1714.42 153.59 C 1722.22 148.62 1731.69 147.81 1740.55 146.03 C 1742.02 154.96 1742.17 164.06 1743.26 173.04 C 1750.32 252.44 1757.96 331.94 1772.80 410.33 C 1766.45 411.63 1759.52 413.85 1753.23 411.68 C 1750.28 406.55 1748.76 400.66 1747.01 395.03 C 1739.42 367.52 1738.56 338.77 1733.04 310.86 C 1731.21 303.01 1729.85 294.87 1726.41 287.54 C 1713.49 290.42 1700.11 289.23 1687.00 288.64 C 1675.11 288.33 1663.20 287.08 1651.33 288.40 C 1649.62 300.16 1650.55 312.12 1651.40 323.92 C 1653.13 346.12 1657.65 368.11 1657.65 390.45 C 1651.77 392.74 1645.16 393.63 1638.98 392.16 C 1632.64 373.07 1629.19 353.12 1626.02 333.28 C 1617.16 274.27 1616.46 214.27 1605.63 155.53 C 1613.16 154.12 1620.99 154.39 1628.39 156.39 C 1631.94 168.25 1631.57 180.71 1631.85 192.95 C 1632.81 205.99 1634.47 218.99 1636.51 231.91 C 1638.19 240.78 1639.35 250.04 1643.62 258.14 C 1645.66 262.51 1651.12 261.76 1655.08 261.57 C 1669.20 260.07 1682.82 255.34 1697.04 254.47 C 1704.42 254.33 1711.89 255.61 1719.21 254.23 C 1723.16 253.47 1726.31 250.04 1726.39 245.94 C 1727.17 235.13 1724.24 224.51 1722.06 214.01 C 1720.15 204.50 1716.75 195.26 1716.19 185.52 C 1715.11 174.91 1714.79 164.24 1714.42 153.59 Z"
     id="path22" />
  <path
     fill="#fac802"
     d=" M 1425.39 163.41 C 1441.11 153.92 1459.58 148.92 1477.95 149.25 C 1495.75 149.25 1513.36 152.19 1531.09 153.45 C 1533.24 160.03 1535.17 166.82 1534.68 173.82 C 1524.17 172.25 1513.41 172.56 1503.06 174.97 C 1497.05 176.49 1490.82 178.80 1486.62 183.57 C 1482.29 188.49 1482.20 197.21 1487.79 201.24 C 1493.62 205.41 1501.16 205.56 1508.05 205.83 C 1520.18 205.98 1531.74 210.45 1542.59 215.51 C 1555.62 221.62 1564.97 233.67 1570.23 246.82 C 1578.27 266.85 1579.18 289.15 1576.00 310.32 C 1572.91 328.86 1566.61 347.61 1553.85 361.83 C 1539.58 378.00 1519.08 387.52 1498.12 391.35 C 1478.43 394.88 1458.09 394.54 1438.40 391.29 C 1436.13 388.28 1435.10 384.42 1433.78 380.91 C 1430.21 369.97 1428.71 358.51 1427.17 347.16 C 1449.15 352.07 1472.52 348.38 1492.76 338.84 C 1508.49 331.39 1522.87 319.70 1530.85 303.97 C 1539.05 288.01 1538.48 268.30 1530.48 252.40 C 1523.40 237.81 1510.57 226.40 1495.69 220.20 C 1488.80 217.24 1481.41 215.78 1474.07 214.46 C 1459.10 211.75 1443.84 210.43 1429.13 206.38 C 1423.27 204.63 1417.20 202.59 1412.67 198.32 C 1408.31 194.19 1407.66 187.43 1409.24 181.91 C 1411.62 173.73 1418.43 167.81 1425.39 163.41 Z"
     id="path24" />
  <path
     fill="#0a0804"
     d=" M 584.90 173.24 C 607.69 170.68 630.00 164.28 653.02 163.68 C 656.53 163.75 660.16 164.17 663.35 165.73 C 666.80 167.56 668.28 172.15 666.59 175.67 C 665.02 179.66 660.44 180.97 656.59 181.49 C 648.76 182.30 640.89 181.37 633.05 181.60 C 612.06 183.24 591.55 189.01 570.48 189.83 C 569.37 193.80 569.76 197.97 569.37 202.04 C 569.18 215.82 568.63 229.82 571.92 243.32 C 582.92 243.27 593.48 239.74 603.94 236.70 C 611.59 234.27 619.35 232.17 627.03 229.81 C 634.89 227.57 642.81 225.26 651.00 224.62 C 654.40 224.50 658.15 224.81 660.90 227.04 C 663.64 230.08 663.39 235.59 659.97 238.06 C 657.50 239.82 655.21 241.96 652.66 243.53 C 623.98 242.10 598.67 258.97 570.44 260.73 C 569.28 285.14 571.46 309.50 573.50 333.78 C 577.93 334.69 582.51 334.23 587.00 333.97 C 616.95 332.61 645.81 323.73 675.35 319.41 C 677.67 322.17 680.58 325.97 678.45 329.68 C 675.67 334.24 670.12 335.87 665.31 337.38 C 652.79 340.81 639.80 341.92 626.96 343.52 C 610.53 346.15 594.57 351.77 577.87 352.62 C 572.71 352.67 566.05 352.98 563.03 347.89 C 560.20 342.71 559.71 336.69 558.92 330.95 C 557.37 314.35 557.64 297.66 558.26 281.02 C 559.28 250.84 557.60 220.69 556.40 190.55 C 532.36 187.50 508.82 195.83 484.83 195.70 C 482.32 234.74 477.20 273.71 478.60 312.91 C 478.74 322.00 482.84 330.89 481.09 340.01 C 480.48 343.71 476.54 345.95 472.98 345.26 C 470.01 344.09 468.99 340.76 468.24 337.96 C 465.75 327.51 466.27 316.67 466.22 306.01 C 466.20 291.97 467.56 278.01 467.89 263.98 C 468.78 241.74 470.27 219.48 469.28 197.22 C 452.59 196.98 435.89 196.48 419.24 195.44 C 392.16 193.33 364.96 192.94 337.81 193.92 C 331.81 237.00 329.15 280.58 330.42 324.07 C 330.70 330.78 332.40 337.85 329.70 344.31 C 328.35 347.39 324.76 347.54 321.88 347.64 C 316.36 343.61 317.37 335.99 317.34 330.00 C 318.21 314.67 318.24 299.32 318.69 283.98 C 319.82 255.94 321.66 227.95 322.96 199.93 C 323.13 198.45 323.11 196.96 322.70 195.53 C 309.85 193.23 296.84 195.40 284.00 196.66 C 271.55 197.99 258.50 199.68 246.40 195.47 C 245.04 194.92 243.47 194.46 242.66 193.13 C 241.96 189.21 242.05 185.09 243.33 181.30 C 294.60 180.47 346.27 181.52 396.94 172.36 C 401.90 176.22 408.01 178.22 414.09 179.48 C 430.16 182.67 446.65 181.43 462.92 181.23 C 473.24 180.40 483.65 181.26 493.94 179.93 C 515.03 178.05 535.79 172.40 557.07 172.82 C 566.32 173.50 575.63 174.25 584.90 173.24 Z"
     id="path26" />
  <path
     fill="#b21f14"
     d=" M 802.49 167.89 C 802.96 166.17 804.65 165.22 806.35 165.10 C 808.17 168.47 810.77 171.54 811.36 175.44 C 813.28 185.98 810.46 196.58 809.37 207.06 C 808.10 238.80 811.75 270.40 814.04 302.00 C 814.98 318.47 816.25 335.04 814.66 351.50 C 806.86 353.74 798.77 351.86 791.19 349.72 L 791.41 349.20 C 798.77 351.57 806.70 353.40 814.37 351.35 C 815.02 342.26 815.64 333.13 814.86 324.03 C 813.80 290.61 809.08 257.40 808.70 223.95 C 808.31 213.55 809.25 203.17 811.01 192.92 C 811.90 185.22 812.77 176.73 808.74 169.72 C 807.73 168.28 807.07 166.04 805.02 165.96 C 802.92 165.90 802.79 168.28 802.23 169.76 C 799.99 178.69 798.38 187.79 797.88 196.99 C 796.03 212.25 796.48 227.67 797.29 242.99 C 797.55 257.69 799.31 272.31 799.60 287.01 C 800.76 300.00 800.54 313.08 800.19 326.11 C 799.66 325.87 798.59 325.40 798.06 325.17 C 798.50 325.20 799.37 325.27 799.81 325.30 C 801.27 300.52 798.26 275.74 797.38 250.98 C 796.12 232.37 796.09 213.66 797.33 195.05 C 798.76 185.95 799.73 176.72 802.49 167.89 Z"
     id="path28" />
  <path
     fill="#0a0804"
     d=" M 705.84 210.02 C 706.72 195.17 706.11 180.28 706.45 165.42 C 711.75 164.59 716.79 166.79 721.67 168.53 C 737.10 212.40 754.47 255.75 776.39 296.83 C 781.75 307.36 786.54 319.96 798.06 325.17 C 798.59 325.40 799.66 325.87 800.19 326.11 C 800.54 313.08 800.76 300.00 799.60 287.01 C 799.31 272.31 797.55 257.69 797.29 242.99 C 796.48 227.67 796.03 212.25 797.88 196.99 C 798.38 187.79 799.99 178.69 802.23 169.76 C 802.79 168.28 802.92 165.90 805.02 165.96 C 807.07 166.04 807.73 168.28 808.74 169.72 C 812.77 176.73 811.90 185.22 811.01 192.92 C 809.25 203.17 808.31 213.55 808.70 223.95 C 809.08 257.40 813.80 290.61 814.86 324.03 C 815.64 333.13 815.02 342.26 814.37 351.35 C 806.70 353.40 798.77 351.57 791.41 349.20 C 768.89 315.44 752.60 278.05 735.87 241.20 C 730.50 229.18 725.03 217.20 719.45 205.27 C 718.19 241.05 716.62 277.42 724.50 312.62 C 725.46 318.53 728.92 323.91 728.61 330.01 C 728.95 335.94 730.61 342.12 728.87 347.96 C 727.54 351.93 721.96 352.54 719.08 349.97 C 716.99 347.38 716.04 344.10 715.14 340.96 C 712.28 330.00 711.37 318.68 709.66 307.51 C 704.84 275.25 705.60 242.54 705.84 210.02 Z"
     id="path30" />
  <path
     fill="#0a0804"
     d=" M 32.03 194.95 C 32.61 186.81 32.60 177.20 38.89 171.12 C 45.83 181.34 44.63 194.24 44.39 205.96 C 43.55 218.62 42.44 231.36 43.88 244.03 C 44.33 247.59 45.01 251.15 46.48 254.45 C 65.26 236.51 83.24 217.59 98.26 196.34 C 102.23 190.08 105.66 183.27 111.09 178.11 C 114.11 174.84 120.94 177.24 120.34 182.01 C 119.49 187.90 116.12 193.01 112.94 197.90 C 97.75 219.99 79.04 239.28 61.19 259.17 C 55.83 265.69 49.57 271.55 44.97 278.65 C 80.78 292.19 113.89 311.66 148.57 327.68 C 149.86 332.02 150.58 337.10 148.14 341.18 C 146.79 341.52 145.49 342.41 144.05 342.09 C 137.48 341.00 132.00 336.88 126.54 333.36 C 113.84 324.42 100.11 317.04 85.89 310.85 C 74.41 305.68 62.48 301.46 50.18 298.72 C 48.30 298.33 46.38 298.21 44.46 298.08 C 42.41 306.64 44.05 315.48 44.49 324.12 C 44.81 332.69 46.57 341.57 43.75 349.92 C 43.00 352.40 40.75 354.43 38.01 353.85 C 33.82 353.96 32.27 349.26 31.73 345.89 C 29.90 330.09 35.24 314.24 32.46 298.49 C 31.67 293.31 26.02 291.42 23.71 287.15 C 22.93 284.75 22.94 282.04 23.62 279.62 C 25.67 276.43 29.34 274.67 31.29 271.39 C 33.42 267.26 33.73 262.52 34.18 257.98 C 35.22 236.94 31.30 215.98 32.03 194.95 Z"
     id="path32" />
  <path
     fill="#fac802"
     d=" M 1288.19 174.83 C 1293.10 179.66 1296.69 185.66 1300.72 191.22 C 1324.06 226.30 1339.16 265.91 1354.09 305.07 C 1362.65 327.44 1370.86 349.95 1380.42 371.92 C 1383.99 380.75 1388.56 389.15 1392.09 397.99 C 1385.66 400.09 1378.53 401.90 1371.94 399.45 C 1365.03 397.00 1360.61 390.55 1357.72 384.14 C 1350.31 367.34 1348.96 348.52 1341.11 331.88 C 1339.02 327.49 1336.17 323.40 1332.29 320.42 C 1318.67 323.56 1304.16 328.33 1290.42 323.11 C 1284.11 346.79 1287.01 371.67 1282.49 395.63 C 1272.23 392.94 1261.46 398.04 1251.28 394.44 C 1252.53 373.10 1256.02 351.93 1259.48 330.84 C 1268.43 278.72 1281.41 227.32 1288.19 174.83 Z"
     id="path34" />
  <path
     fill="#0a0804"
     d=" M 201.52 186.25 C 201.87 184.18 204.38 186.14 205.04 187.04 C 208.74 191.02 210.91 196.15 212.41 201.31 C 215.17 210.59 215.66 220.33 215.88 229.95 C 216.73 239.63 215.59 249.31 215.65 259.01 C 215.60 268.67 215.40 278.34 215.75 288.01 C 216.61 300.39 216.79 312.94 219.87 325.04 C 220.81 330.51 222.64 336.38 220.68 341.81 C 219.47 345.04 215.41 345.32 212.56 344.42 C 209.71 342.71 208.50 339.39 207.60 336.36 C 205.56 328.74 205.18 320.82 204.71 312.99 C 204.57 293.33 204.05 273.67 204.27 254.01 C 204.31 239.63 204.82 225.13 202.45 210.89 C 201.46 202.75 199.34 194.37 201.52 186.25 Z"
     id="path36" />
  <path
     fill="#b21f14"
     d=" M 337.81 193.92 C 364.96 192.94 392.16 193.33 419.24 195.44 C 392.12 194.48 364.91 192.30 337.79 194.55 C 332.65 236.82 329.27 279.40 330.56 322.01 C 330.80 329.39 332.94 337.22 330.06 344.32 C 328.90 347.71 324.92 348.05 321.88 347.64 C 324.76 347.54 328.35 347.39 329.70 344.31 C 332.40 337.85 330.70 330.78 330.42 324.07 C 329.15 280.58 331.81 237.00 337.81 193.92 Z"
     id="path38" />
  <path
     fill="#0a0804"
     d=" M 1299.81 245.73 C 1303.46 244.00 1306.85 247.27 1309.48 249.43 C 1315.91 254.64 1319.10 262.50 1322.31 269.88 C 1326.43 280.24 1329.70 291.27 1329.26 302.54 C 1317.08 303.08 1302.55 302.39 1294.28 292.07 C 1294.97 289.78 1295.64 287.46 1295.74 285.06 C 1296.21 275.55 1295.24 266.02 1295.86 256.51 C 1296.32 252.74 1296.64 248.33 1299.81 245.73 Z"
     id="path40" />
  <path
     fill="#b21f14"
     d=" M 946.25 380.98 C 950.97 347.74 955.61 314.37 963.84 281.79 C 956.74 313.37 951.23 345.30 947.23 377.42 C 955.25 379.06 964.34 380.38 970.08 386.85 C 972.20 388.97 974.14 391.90 973.29 395.04 C 971.82 398.28 968.43 399.97 965.28 401.18 C 951.49 406.05 936.72 406.46 922.45 409.15 C 917.29 410.05 912.17 411.14 907.00 411.97 C 915.54 409.94 924.19 408.31 932.90 407.20 C 935.45 402.15 940.45 399.32 944.22 395.39 C 945.45 390.69 945.44 385.76 946.25 380.98 Z"
     id="path42" />
  <path
     fill="#b21f14"
     d=" M 1104.90 304.81 C 1107.30 299.90 1110.29 295.30 1113.74 291.05 C 1122.55 314.20 1125.69 338.98 1129.00 363.38 C 1110.26 363.59 1091.49 364.15 1072.76 363.25 C 1075.66 358.60 1078.44 353.87 1081.29 349.18 C 1081.80 348.44 1082.34 347.71 1082.90 346.99 C 1091.91 345.38 1101.11 346.66 1110.07 344.66 C 1115.35 344.20 1120.66 344.75 1125.96 344.81 C 1123.60 326.82 1119.94 308.90 1113.74 291.81 C 1110.32 295.81 1107.75 300.42 1104.90 304.81 Z"
     id="path44" />
  <path
     fill="#b21f14"
     d=" M 1664.31 303.34 C 1682.63 304.47 1701.61 299.48 1719.40 305.81 C 1719.45 305.98 1719.55 306.32 1719.60 306.50 C 1709.32 302.39 1697.92 302.38 1687.04 303.24 C 1679.51 303.62 1671.96 303.64 1664.43 303.60 C 1664.70 320.71 1665.44 337.85 1667.71 354.82 C 1671.70 355.96 1675.36 358.11 1677.96 361.40 C 1675.13 362.85 1672.07 363.72 1669.00 364.46 C 1669.87 371.75 1671.32 378.95 1672.69 386.16 C 1671.61 382.53 1670.87 378.82 1670.31 375.08 C 1666.20 351.41 1664.16 327.37 1664.31 303.34 Z"
     id="path48" />
  <path
     fill="#b21f14"
     d=" M 1414.60 328.04 C 1416.76 328.89 1418.89 329.85 1421.00 330.87 C 1418.89 330.16 1416.81 329.35 1414.76 328.55 C 1412.56 337.18 1413.00 346.23 1414.05 354.99 C 1416.85 372.98 1423.12 390.20 1430.04 406.97 C 1466.54 412.50 1505.85 409.70 1538.40 390.98 L 1537.68 392.81 C 1564.83 394.31 1592.03 394.55 1619.22 394.68 C 1619.39 401.90 1619.22 410.59 1625.39 415.59 C 1630.27 418.79 1636.31 419.33 1641.95 420.21 C 1651.70 421.11 1661.66 421.15 1671.29 419.16 C 1674.57 418.26 1678.61 417.24 1680.33 414.00 C 1678.73 407.74 1676.06 401.79 1674.87 395.42 C 1694.76 395.82 1714.64 396.86 1734.47 398.61 L 1734.12 397.10 C 1736.42 406.21 1738.54 415.43 1741.92 424.20 C 1743.87 425.68 1746.60 425.41 1748.94 425.72 C 1762.70 426.52 1776.35 423.77 1789.53 420.09 C 1787.88 414.75 1786.09 409.45 1785.01 403.96 C 1785.33 405.03 1785.65 406.10 1785.99 407.18 C 1790.24 408.73 1794.58 410.39 1798.18 413.22 C 1799.96 416.67 1796.62 420.20 1793.69 421.74 C 1787.02 425.21 1779.66 427.08 1772.50 429.24 C 1747.29 436.39 1720.84 435.24 1694.92 435.33 C 1672.58 435.18 1650.34 437.76 1628.01 437.60 C 1596.77 437.84 1565.60 434.84 1534.36 435.52 C 1522.81 435.83 1511.22 436.55 1499.87 438.76 C 1507.71 440.88 1515.93 440.72 1523.98 441.37 C 1539.62 442.00 1555.38 441.98 1570.84 444.70 C 1578.29 445.96 1585.97 449.15 1590.40 455.57 C 1592.00 457.74 1592.24 461.18 1590.00 463.03 C 1587.15 465.40 1583.33 465.99 1579.85 466.87 C 1567.39 469.38 1554.66 470.11 1542.04 471.36 C 1514.10 473.82 1486.03 472.71 1458.04 472.17 C 1432.64 470.96 1407.17 471.61 1381.87 474.16 C 1354.63 476.70 1327.26 475.08 1299.97 476.27 C 1272.66 477.10 1245.24 478.10 1218.05 474.69 C 1183.44 470.41 1148.40 470.28 1113.95 464.56 C 1102.96 462.59 1091.77 460.38 1081.79 455.20 C 1077.51 452.99 1073.18 448.27 1075.10 443.12 C 1077.91 435.98 1085.16 431.87 1091.89 429.03 C 1107.24 424.24 1123.32 422.22 1138.64 417.26 C 1138.14 415.10 1137.56 412.96 1137.18 410.78 C 1139.86 419.84 1142.10 429.18 1146.54 437.57 C 1150.84 440.10 1156.40 439.13 1161.20 438.68 C 1174.88 436.95 1188.12 431.89 1202.04 432.17 C 1206.15 432.10 1209.89 434.27 1213.98 434.39 C 1217.65 434.03 1221.68 431.05 1221.30 426.99 C 1220.63 422.31 1217.89 418.31 1215.97 414.08 C 1213.40 409.09 1212.33 403.54 1210.93 398.16 C 1208.15 386.74 1205.22 375.36 1203.01 363.81 C 1215.17 362.93 1227.29 361.55 1239.46 360.66 C 1240.75 352.12 1241.25 343.49 1242.62 334.96 C 1241.57 350.42 1238.85 365.69 1236.77 381.03 C 1235.45 389.88 1234.51 398.92 1235.53 407.85 C 1236.01 410.78 1237.34 414.97 1240.99 414.88 C 1248.44 414.75 1254.53 409.06 1262.02 409.10 C 1271.93 408.84 1282.52 411.19 1291.88 406.85 C 1293.85 405.66 1296.71 404.59 1297.10 402.03 C 1298.26 381.93 1298.88 361.72 1301.81 341.78 C 1301.52 346.84 1300.71 351.86 1300.25 356.91 C 1311.72 356.56 1323.17 355.60 1334.62 354.83 C 1332.56 349.40 1330.57 343.73 1326.62 339.36 C 1325.53 338.60 1324.34 338.30 1323.06 338.46 C 1315.90 339.02 1308.82 340.26 1301.81 341.78 C 1309.91 339.14 1318.49 338.47 1326.95 337.94 C 1337.71 354.93 1339.88 375.33 1346.00 394.10 C 1348.99 402.64 1352.49 411.59 1359.50 417.66 C 1362.41 417.26 1365.04 415.75 1367.92 415.13 C 1375.15 413.46 1382.62 413.58 1390.00 413.55 C 1397.85 413.45 1406.26 412.82 1412.79 407.97 C 1403.84 387.67 1394.31 367.57 1386.19 346.91 C 1387.06 348.66 1387.88 350.46 1388.66 352.27 C 1396.88 352.27 1405.10 351.69 1413.33 351.88 C 1412.41 343.92 1412.50 335.82 1414.60 328.04 Z"
     id="path52" />
  <path
     fill="#fac802"
     d=" M 1082.67 346.74 C 1083.03 343.64 1085.35 341.49 1086.95 338.99 C 1086.79 341.35 1085.41 343.23 1084.24 345.15 C 1085.24 346.97 1088.14 345.91 1089.93 346.00 C 1096.60 344.89 1103.37 345.40 1110.07 344.66 C 1101.11 346.66 1091.91 345.38 1082.90 346.99 C 1082.34 347.71 1081.80 348.44 1081.29 349.18 C 1081.74 348.37 1082.21 347.55 1082.67 346.74 Z"
     id="path54" />
  <path
     fill="#0a0804"
     d=" M 1854.30 362.26 C 1860.74 360.95 1868.16 360.09 1873.94 363.96 C 1882.84 369.32 1886.61 380.72 1884.53 390.63 C 1881.64 405.55 1866.81 416.19 1852.00 416.55 C 1843.54 417.30 1834.70 412.67 1831.15 404.85 C 1826.35 394.22 1828.16 380.58 1836.40 372.12 C 1841.09 366.98 1847.55 363.73 1854.30 362.26 Z"
     id="path58" />
  <path
     fill="#b21f14"
     d=" M 1129.17 364.74 C 1131.34 379.88 1133.72 395.00 1136.96 409.96 C 1135.91 406.70 1135.32 403.32 1134.48 400.00 C 1129.12 398.37 1123.82 396.55 1118.60 394.55 C 1115.38 393.23 1112.03 391.87 1109.54 389.37 C 1107.22 387.28 1108.00 383.07 1110.81 381.82 C 1116.91 378.53 1123.66 376.67 1130.39 375.13 C 1129.84 371.68 1129.39 368.22 1129.17 364.74 Z"
     id="path60" />
  <path
     fill="#b21f14"
     d=" M 872.95 369.02 L 872.84 369.51 C 868.93 385.86 864.26 402.03 860.34 418.38 C 875.49 419.08 890.24 414.89 905.05 412.37 C 895.22 414.96 885.15 416.50 875.12 418.04 C 870.14 418.81 865.08 418.75 860.07 418.55 C 860.59 415.90 861.21 413.26 861.78 410.62 C 838.44 410.69 814.92 411.06 791.82 407.21 C 784.22 405.55 775.24 404.33 770.42 397.46 C 768.24 394.71 767.58 390.03 770.72 387.73 C 775.26 384.61 780.90 383.80 786.17 382.60 C 814.22 377.38 842.78 375.90 871.24 374.79 C 871.77 372.85 872.31 370.92 872.95 369.02 Z"
     id="path64" />
  <path
     fill="#fac802"
     d=" M 1857.65 373.86 C 1860.50 373.15 1863.87 372.87 1866.44 374.63 C 1871.13 377.79 1872.94 384.93 1869.48 389.64 C 1866.82 393.36 1864.00 396.98 1862.19 401.22 C 1856.35 404.29 1847.86 405.00 1842.74 400.14 C 1839.34 396.96 1839.83 391.59 1841.74 387.75 C 1844.95 381.31 1850.82 376.17 1857.65 373.86 Z"
     id="path66" />
  <path
     fill="#b21f14"
     d=" M 1938.57 416.03 C 1952.39 415.28 1966.27 414.74 1980.10 415.70 C 1988.88 416.53 1997.90 417.94 2005.69 422.33 C 2008.37 423.85 2011.07 426.57 2010.68 429.93 C 2010.51 432.16 2008.47 433.66 2006.58 434.46 C 2002.60 436.03 1998.27 436.35 1994.06 436.61 C 1978.40 437.69 1962.70 437.15 1947.03 437.18 C 1932.68 436.43 1918.03 436.49 1904.14 432.39 C 1901.76 431.69 1899.57 430.34 1897.06 430.26 C 1887.99 429.55 1878.86 429.30 1869.87 427.97 C 1867.07 427.22 1862.39 423.66 1866.07 421.01 C 1869.64 419.65 1873.46 419.00 1877.12 417.84 C 1897.60 418.92 1918.11 417.18 1938.57 416.03 Z"
     id="path68" />
  <path
     fill="#b21f14"
     d=" M 975.55 421.81 C 987.41 418.96 999.83 421.49 1010.98 425.88 C 1015.27 427.80 1020.16 429.74 1022.63 434.01 C 1024.01 437.38 1020.54 439.74 1017.91 440.91 C 1009.77 444.39 1000.80 445.35 992.03 445.78 C 982.80 446.04 973.37 445.95 964.46 443.26 C 961.06 442.16 957.42 440.60 955.59 437.35 C 954.23 433.92 955.98 429.96 958.95 428.01 C 963.91 424.69 969.78 423.06 975.55 421.81 Z"
     id="path70" />
  <path
     fill="#b21f14"
     d=" M 1688.48 451.73 C 1694.62 450.83 1701.01 450.81 1707.07 452.30 C 1709.61 453.01 1712.76 454.09 1713.46 457.00 C 1712.61 459.85 1710.05 462.20 1706.97 462.13 C 1699.53 462.65 1691.86 463.22 1684.60 461.19 C 1682.28 460.62 1679.85 458.64 1680.62 455.99 C 1682.08 453.10 1685.58 452.38 1688.48 451.73 Z"
     id="path72" />
</svg>
