<?xml version="1.0" encoding="UTF-8" ?>
<!DOCTYPE svg PUBLIC "-//W3C//DTD SVG 1.1//EN" "http://www.w3.org/Graphics/SVG/1.1/DTD/svg11.dtd">
<svg width="2070pt" height="483pt" viewBox="0 0 2070 483" version="1.1" xmlns="http://www.w3.org/2000/svg">
<path fill="#fefefe" d=" M 0.00 0.00 L 2070.00 0.00 L 2070.00 483.00 L 0.00 483.00 L 0.00 0.00 Z" />
<path fill="#0a0804" d=" M 1112.73 50.75 C 1113.60 46.37 1119.30 47.48 1122.33 48.77 C 1129.99 52.70 1133.29 61.43 1136.02 69.08 C 1141.63 87.20 1146.58 105.56 1150.00 124.22 C 1157.08 159.82 1160.50 196.23 1170.91 231.12 C 1176.16 247.69 1181.68 264.19 1186.18 280.99 C 1191.62 300.41 1195.56 320.22 1198.66 340.14 C 1199.94 348.14 1201.59 356.08 1203.10 364.05 C 1205.14 374.94 1207.96 385.66 1210.56 396.42 C 1212.01 402.38 1213.26 408.47 1216.00 414.01 C 1217.94 418.25 1220.71 422.28 1221.25 427.02 C 1221.78 431.00 1217.75 434.29 1214.00 434.15 C 1209.61 433.97 1205.41 432.41 1201.03 432.26 C 1184.03 431.90 1168.00 440.25 1150.95 439.06 C 1148.60 438.98 1146.28 437.91 1145.45 435.59 C 1142.64 429.84 1141.11 423.58 1138.98 417.57 C 1137.22 411.85 1135.84 406.02 1134.79 400.13 C 1133.13 391.15 1131.65 382.14 1130.43 373.10 C 1129.79 369.79 1129.18 366.47 1128.84 363.12 C 1128.22 356.92 1127.31 350.77 1126.22 344.64 C 1123.28 326.82 1120.43 308.76 1113.70 291.89 C 1108.58 297.68 1105.07 304.62 1101.25 311.27 C 1095.07 322.52 1089.63 334.15 1083.44 345.40 C 1079.82 351.60 1076.23 357.81 1072.28 363.82 C 1069.76 367.70 1067.26 371.66 1064.04 375.01 C 1062.81 376.50 1060.73 376.15 1059.05 376.36 C 1055.73 376.43 1052.38 376.71 1049.09 376.25 C 1045.57 373.68 1043.13 369.97 1040.23 366.77 C 1012.90 335.09 989.54 300.20 968.43 264.14 C 958.16 301.17 952.37 339.23 946.96 377.21 C 945.95 382.40 945.73 387.70 944.74 392.89 C 944.29 395.88 941.65 397.71 939.68 399.72 C 936.28 402.68 933.53 406.76 928.98 408.02 C 909.85 410.71 891.22 416.22 871.99 418.31 C 868.13 418.71 864.23 418.67 860.37 418.38 C 860.66 416.96 860.99 415.56 861.35 414.17 C 864.84 400.53 868.31 386.89 872.04 373.32 C 877.37 350.22 883.95 327.43 889.67 304.43 C 899.69 267.58 908.68 230.46 918.28 193.50 C 928.56 154.88 944.57 118.17 957.27 80.35 C 959.70 72.68 962.65 65.07 963.35 56.99 C 963.60 53.72 964.85 50.12 968.11 48.73 C 971.43 48.12 974.75 49.70 977.39 51.61 C 982.83 55.77 986.04 62.07 988.63 68.26 C 992.27 77.48 994.89 87.06 997.48 96.62 C 999.40 103.94 1002.41 110.89 1004.95 118.00 C 1020.03 158.47 1035.36 198.86 1052.48 238.51 C 1055.75 245.35 1058.20 252.57 1061.90 259.20 C 1069.31 233.75 1074.33 207.66 1079.94 181.76 C 1089.10 137.69 1098.11 93.41 1112.73 50.75 Z" />
<path fill="#0a0804" d=" M 1812.80 55.85 C 1826.50 54.23 1840.07 49.94 1853.99 51.41 C 1857.61 51.74 1861.36 53.81 1862.42 57.49 C 1866.61 71.35 1861.84 85.85 1864.02 99.92 C 1870.32 149.38 1872.47 199.25 1874.40 249.03 C 1874.66 269.32 1876.07 289.63 1875.31 309.91 C 1865.49 316.02 1853.18 315.15 1842.15 314.16 C 1828.46 272.86 1823.12 229.50 1815.39 186.85 C 1808.03 144.26 1799.87 101.81 1792.43 59.24 C 1791.92 57.33 1792.58 55.51 1794.04 54.23 C 1800.03 56.50 1806.50 56.87 1812.80 55.85 Z" />
<path fill="#fac802" d=" M 1805.72 70.06 C 1819.93 66.30 1834.81 65.79 1849.42 66.61 C 1852.15 77.69 1852.91 89.14 1854.56 100.41 C 1862.37 164.22 1861.06 228.63 1860.56 292.77 C 1857.11 293.39 1853.02 293.33 1850.61 290.40 C 1846.57 285.58 1846.10 279.00 1844.68 273.12 C 1829.73 209.29 1818.79 144.64 1806.95 80.19 C 1806.22 76.86 1805.63 73.48 1805.72 70.06 Z" />
<path fill="#fac802" d=" M 973.52 74.41 C 974.07 74.38 975.17 74.31 975.72 74.28 C 977.40 77.18 978.41 80.39 979.48 83.56 C 999.95 141.20 1022.87 197.97 1041.78 256.15 C 1044.97 264.74 1048.25 273.63 1054.30 280.68 C 1057.01 283.98 1061.49 286.50 1065.81 284.91 C 1071.30 283.17 1073.84 277.47 1075.41 272.40 C 1079.24 259.85 1081.90 246.98 1084.31 234.09 C 1094.12 185.91 1102.19 137.26 1116.03 90.00 C 1117.82 84.64 1118.84 78.96 1121.59 73.97 C 1130.50 95.85 1135.37 119.12 1139.86 142.25 C 1144.70 167.38 1148.65 192.68 1154.38 217.62 C 1158.47 236.45 1165.35 254.51 1169.83 273.23 C 1180.59 314.38 1187.44 356.40 1197.11 397.80 C 1198.41 404.48 1200.63 410.94 1201.85 417.64 C 1188.75 420.78 1175.54 424.40 1161.98 424.52 C 1159.85 424.31 1156.47 424.86 1155.84 422.14 C 1148.46 401.81 1146.02 380.18 1142.25 359.00 C 1140.31 345.79 1136.96 332.83 1135.23 319.58 C 1133.09 307.83 1131.44 295.90 1127.47 284.59 C 1124.28 275.38 1119.28 266.20 1110.92 260.75 C 1106.29 266.89 1103.56 274.21 1099.94 280.95 C 1088.77 303.89 1079.42 327.88 1065.26 349.23 C 1062.70 353.08 1060.13 356.97 1056.94 360.34 C 1052.17 357.09 1048.31 352.78 1044.26 348.74 C 1025.10 329.02 1009.85 305.95 995.23 282.79 C 988.50 272.42 985.03 260.25 977.83 250.17 C 973.86 245.18 968.50 240.53 961.99 239.60 C 959.02 239.01 956.87 241.51 956.17 244.11 C 952.63 254.98 952.13 266.50 950.46 277.74 C 944.82 311.15 937.61 344.27 931.59 377.61 C 930.87 381.17 930.66 384.91 929.27 388.30 C 924.35 392.96 917.69 395.25 911.39 397.39 C 900.65 400.40 889.35 402.13 878.20 401.12 C 886.76 367.79 895.71 334.56 904.20 301.20 C 920.86 237.23 937.70 173.20 959.76 110.84 C 964.18 98.64 968.46 86.37 973.52 74.41 Z" />
<path fill="#0a0804" d=" M 1738.75 130.80 C 1742.27 129.71 1745.46 127.75 1749.05 126.83 C 1751.42 126.71 1752.70 129.45 1753.17 131.45 C 1754.93 140.54 1753.24 149.82 1753.73 158.99 C 1754.99 182.32 1757.95 205.51 1761.09 228.64 C 1766.79 278.71 1770.35 329.10 1779.47 378.72 C 1781.41 388.25 1783.41 397.77 1785.85 407.18 C 1787.03 411.42 1788.29 415.64 1789.16 419.96 C 1781.13 422.91 1772.61 424.14 1764.17 425.27 C 1756.94 425.89 1749.53 426.45 1742.41 424.74 C 1738.38 416.33 1736.85 407.04 1734.29 398.15 C 1727.55 367.90 1725.52 336.84 1719.45 306.47 C 1710.87 302.68 1701.21 302.61 1692.00 302.82 C 1682.87 303.48 1673.72 303.62 1664.58 303.47 C 1664.29 320.67 1665.46 337.90 1667.61 354.96 C 1667.97 358.15 1668.34 361.33 1668.83 364.51 C 1670.41 375.01 1672.33 385.47 1674.97 395.76 C 1676.03 402.21 1679.65 408.16 1679.88 414.69 C 1676.32 418.76 1670.46 419.47 1665.42 420.27 C 1656.11 421.04 1646.65 421.12 1637.40 419.69 C 1632.21 418.69 1626.31 417.54 1622.96 413.04 C 1619.18 407.80 1619.30 401.00 1619.15 394.83 C 1619.15 387.59 1619.52 380.32 1618.82 373.10 C 1617.80 361.76 1616.15 350.47 1614.41 339.22 C 1610.57 314.89 1607.66 290.42 1605.57 265.87 C 1601.74 223.38 1596.46 181.04 1591.62 138.67 C 1601.47 137.85 1611.16 140.59 1621.00 140.49 C 1625.93 140.62 1630.81 139.70 1635.71 139.20 C 1641.57 149.39 1642.98 161.28 1644.23 172.76 C 1646.74 196.02 1645.51 220.35 1654.64 242.35 C 1672.40 246.19 1690.25 240.37 1708.02 239.58 C 1709.13 239.39 1711.66 239.87 1711.27 237.91 C 1709.17 212.85 1704.73 188.05 1702.11 163.05 C 1701.44 154.54 1700.20 146.04 1700.54 137.49 C 1713.40 136.18 1726.39 134.80 1738.75 130.80 Z" />
<path fill="#0a0804" d=" M 1418.18 149.18 C 1434.11 138.45 1453.22 133.66 1472.09 131.46 C 1494.66 129.22 1517.83 130.11 1539.71 136.45 C 1541.09 145.61 1543.18 154.63 1545.65 163.56 C 1548.34 173.69 1551.16 184.31 1548.87 194.81 C 1542.37 195.73 1536.48 192.67 1530.76 190.12 C 1526.06 187.95 1520.69 187.65 1515.74 189.02 C 1525.09 195.38 1536.56 197.10 1546.90 201.25 C 1554.04 204.09 1560.32 208.89 1565.21 214.80 C 1574.99 226.54 1581.28 240.78 1585.77 255.28 C 1592.20 275.98 1592.86 298.24 1588.73 319.46 C 1587.48 325.52 1585.92 331.55 1583.55 337.28 C 1579.55 348.38 1573.51 358.65 1566.09 367.80 C 1557.98 377.81 1547.66 385.82 1536.57 392.27 C 1522.87 399.27 1508.24 404.59 1493.01 407.02 C 1476.87 409.60 1460.42 410.03 1444.14 408.71 C 1439.56 408.20 1434.77 408.36 1430.44 406.64 C 1427.66 402.96 1426.63 398.33 1424.93 394.12 C 1420.95 383.87 1417.81 373.32 1415.36 362.61 C 1413.00 352.30 1413.33 341.62 1413.88 331.14 C 1414.11 330.45 1414.58 329.06 1414.81 328.37 C 1420.41 330.54 1425.99 332.94 1431.99 333.78 C 1453.06 336.80 1474.94 331.95 1493.30 321.35 C 1505.14 314.67 1515.93 305.06 1521.47 292.41 C 1525.11 284.50 1525.20 275.44 1523.82 266.99 C 1522.16 257.24 1516.33 248.39 1508.15 242.87 C 1496.26 234.75 1481.90 231.65 1467.99 228.96 C 1455.09 226.42 1442.02 224.56 1429.38 220.85 C 1419.70 217.92 1409.82 213.77 1403.12 205.89 C 1397.46 199.41 1395.36 190.39 1396.71 181.98 C 1398.37 168.44 1407.09 156.72 1418.18 149.18 Z" />
<path fill="#0a0804" d=" M 1275.19 155.94 C 1274.70 151.69 1277.02 147.31 1281.14 145.85 C 1285.91 145.94 1291.03 148.18 1293.55 152.42 C 1327.13 203.70 1350.26 260.75 1373.85 317.06 C 1378.38 328.82 1383.75 340.24 1388.30 351.99 C 1395.29 368.99 1402.68 385.84 1410.57 402.45 C 1411.34 404.23 1411.99 406.06 1412.66 407.90 C 1403.33 415.05 1390.98 413.38 1380.00 413.74 C 1372.90 413.62 1366.18 416.03 1359.32 417.48 C 1353.31 412.41 1350.13 404.95 1347.27 397.83 C 1342.02 383.32 1339.67 367.94 1334.46 353.41 C 1332.05 348.28 1330.27 342.40 1325.93 338.54 C 1320.04 338.14 1314.19 339.39 1308.40 340.28 C 1306.18 340.83 1303.59 340.94 1301.88 342.60 C 1301.20 344.93 1300.95 347.36 1300.71 349.77 C 1298.82 366.48 1297.97 383.28 1297.21 400.06 C 1297.47 404.31 1293.36 406.62 1289.90 407.81 C 1280.20 410.96 1269.93 408.41 1260.00 409.34 C 1253.12 410.04 1247.34 415.27 1240.27 414.74 C 1236.69 414.17 1235.81 409.90 1235.38 406.90 C 1233.96 391.38 1237.79 376.09 1239.57 360.77 C 1241.09 349.96 1241.73 339.05 1243.53 328.28 C 1250.73 284.40 1264.89 242.00 1272.01 198.10 C 1274.22 184.17 1275.95 170.07 1275.19 155.94 Z" />
<path fill="#fac802" d=" M 1714.91 153.19 C 1722.76 148.84 1731.85 147.40 1740.65 146.21 C 1742.19 155.93 1742.19 165.82 1743.47 175.58 C 1750.17 249.59 1757.16 323.71 1770.40 396.90 C 1771.21 401.28 1772.14 405.66 1772.53 410.12 C 1766.40 412.34 1759.69 413.12 1753.26 411.95 C 1745.17 395.07 1742.68 376.25 1739.94 357.93 C 1738.28 345.96 1737.04 333.92 1734.99 322.01 C 1733.02 310.57 1731.07 298.99 1726.80 288.15 C 1714.89 289.25 1702.93 289.84 1690.99 288.86 C 1677.76 288.56 1664.49 286.94 1651.29 288.43 C 1649.96 298.87 1650.42 309.47 1651.11 319.94 C 1652.38 335.22 1654.20 350.44 1656.22 365.63 C 1656.87 373.39 1657.84 381.19 1657.40 388.99 C 1657.49 390.94 1655.39 391.44 1653.94 391.84 C 1649.03 392.97 1643.85 393.31 1638.94 392.12 C 1633.03 374.41 1629.84 355.92 1626.63 337.57 C 1618.49 284.31 1616.88 230.32 1609.21 177.01 C 1608.34 169.76 1606.32 162.66 1606.11 155.33 C 1613.48 154.35 1621.24 154.07 1628.36 156.57 C 1630.76 164.81 1631.68 173.43 1631.65 181.98 C 1631.50 195.94 1633.52 209.79 1635.27 223.60 C 1637.16 234.61 1638.17 245.99 1642.69 256.32 C 1643.86 259.33 1646.47 262.03 1649.96 261.71 C 1666.62 261.88 1682.31 254.38 1698.99 254.54 C 1705.99 254.42 1713.17 255.75 1720.05 254.00 C 1724.03 252.96 1726.47 249.02 1726.43 245.02 C 1726.91 234.01 1723.92 223.24 1721.71 212.55 C 1719.77 202.70 1716.23 193.13 1715.92 183.00 C 1715.51 173.07 1714.02 163.13 1714.91 153.19 Z" />
<path fill="#fac802" d=" M 1465.61 149.72 C 1487.40 147.88 1509.07 151.62 1530.73 153.43 C 1533.62 159.76 1535.07 166.78 1534.67 173.75 C 1524.39 172.63 1513.90 172.34 1503.77 174.79 C 1497.50 176.30 1490.97 178.63 1486.61 183.61 C 1482.31 188.50 1482.25 197.22 1487.79 201.21 C 1493.87 205.72 1501.81 205.59 1509.04 205.90 C 1516.43 206.07 1523.66 207.91 1530.58 210.45 C 1539.53 213.77 1548.61 217.68 1555.51 224.48 C 1565.85 234.44 1571.83 248.09 1574.97 261.91 C 1579.81 284.71 1578.23 308.78 1571.00 330.91 C 1566.82 343.74 1560.19 355.98 1550.41 365.41 C 1534.99 380.98 1513.64 389.27 1492.25 392.34 C 1474.41 394.60 1456.19 394.22 1438.43 391.43 C 1430.84 378.04 1429.37 362.28 1427.22 347.31 C 1449.23 351.82 1472.53 348.51 1492.74 338.82 C 1507.25 332.04 1520.42 321.61 1528.78 307.80 C 1537.52 293.50 1539.15 275.31 1533.46 259.59 C 1527.92 243.23 1515.32 229.77 1499.95 222.13 C 1485.07 214.67 1468.17 213.89 1452.07 210.96 C 1440.95 209.14 1429.56 207.61 1419.27 202.76 C 1415.23 200.79 1411.14 197.96 1409.52 193.59 C 1407.37 187.51 1408.74 180.60 1412.33 175.35 C 1416.90 168.55 1423.94 163.91 1431.09 160.17 C 1441.88 154.76 1453.62 151.18 1465.61 149.72 Z" />
<path fill="#0a0804" d=" M 589.06 172.74 C 610.40 169.92 631.40 164.20 653.01 163.68 C 657.12 163.83 661.67 164.20 664.95 166.99 C 668.28 169.94 667.87 175.71 664.54 178.51 C 662.10 180.53 658.86 181.22 655.79 181.57 C 646.56 182.40 637.28 180.86 628.07 182.05 C 608.71 184.34 589.64 188.60 570.21 190.26 C 569.18 198.80 569.29 207.42 569.29 216.00 C 569.38 225.06 569.39 234.30 572.05 243.06 C 577.30 243.63 582.49 242.31 587.60 241.28 C 598.21 238.77 608.50 235.11 619.00 232.18 C 629.21 229.26 639.36 225.75 649.99 224.74 C 653.69 224.47 657.86 224.63 660.88 227.08 C 663.45 229.89 663.38 234.92 660.48 237.51 C 658.08 239.75 655.49 241.89 652.52 243.33 C 648.69 243.86 644.80 243.48 640.96 243.96 C 616.74 246.19 594.97 259.43 570.56 260.63 C 569.38 285.06 571.25 309.51 573.57 333.82 C 578.69 334.67 583.89 334.19 589.03 333.83 C 617.53 332.39 645.00 323.93 673.12 319.81 C 676.75 318.97 678.43 323.36 679.06 326.18 C 679.56 331.39 674.06 334.19 669.97 335.85 C 656.19 340.68 641.48 341.67 627.09 343.49 C 610.00 346.13 593.43 352.30 576.00 352.64 C 571.64 352.55 566.20 352.51 563.47 348.49 C 560.70 344.18 560.04 338.94 559.25 333.98 C 556.30 309.07 558.78 284.00 558.51 259.01 C 558.57 236.20 557.30 213.43 556.36 190.65 C 532.48 187.32 509.06 195.90 485.21 195.61 C 483.79 203.66 483.99 211.91 483.04 220.03 C 480.38 251.93 477.19 283.96 478.86 316.00 C 479.53 323.97 482.59 331.89 481.10 339.94 C 480.54 343.60 476.64 345.95 473.12 345.23 C 470.03 344.16 468.98 340.71 468.19 337.88 C 466.06 329.09 466.34 319.98 466.25 311.00 C 466.04 294.64 467.58 278.34 468.00 262.00 C 468.67 240.44 470.53 218.83 469.05 197.27 C 430.00 196.98 391.08 192.72 352.01 193.68 C 347.25 193.74 342.48 193.85 337.78 194.63 C 332.31 237.16 329.24 280.08 330.58 322.97 C 330.80 329.93 332.68 337.24 330.10 343.97 C 328.50 348.84 320.71 348.92 318.86 344.23 C 316.35 337.81 317.57 330.74 317.58 324.03 C 318.37 311.04 318.29 298.02 318.66 285.02 C 319.43 264.00 320.81 243.02 321.79 222.02 C 322.38 213.20 323.05 204.36 322.74 195.52 C 301.11 191.91 279.60 199.59 257.92 197.85 C 252.62 197.37 247.13 196.44 242.62 193.44 C 242.05 189.42 241.99 185.29 243.22 181.38 C 287.03 180.41 331.04 181.41 374.60 175.78 C 381.78 175.05 388.83 173.33 396.01 172.61 C 399.67 173.84 402.85 176.18 406.52 177.42 C 414.06 180.06 422.09 180.97 430.03 181.37 C 444.02 181.83 458.02 181.43 472.00 180.85 C 480.35 180.78 488.73 180.75 497.02 179.67 C 516.69 177.52 536.12 172.65 556.00 172.81 C 567.00 173.50 578.09 174.38 589.06 172.74 Z" />
<path fill="#0a0804" d=" M 706.32 165.86 C 711.52 164.32 716.69 166.79 721.53 168.47 C 736.82 211.07 753.44 253.36 774.61 293.44 C 779.43 302.41 783.06 312.31 790.26 319.75 C 792.91 322.49 796.18 324.75 799.99 325.49 C 801.18 301.32 798.67 277.17 797.48 253.05 C 796.23 228.85 795.41 204.38 799.66 180.40 C 800.59 175.61 801.41 170.74 803.35 166.22 C 804.00 166.03 805.31 165.63 805.96 165.44 C 809.66 169.37 811.76 174.61 811.76 180.03 C 812.08 186.69 811.23 193.33 810.17 199.90 C 808.04 213.20 809.19 226.68 809.43 240.07 C 810.42 260.06 812.36 279.99 813.80 299.95 C 814.81 317.09 816.33 334.36 814.49 351.50 C 807.42 353.35 799.97 352.19 793.12 350.00 C 791.36 349.56 790.42 347.93 789.45 346.57 C 767.43 311.92 750.69 274.31 733.95 236.92 C 729.72 227.20 724.93 217.69 720.93 207.89 C 721.20 205.63 718.31 205.88 719.22 208.06 C 718.67 230.68 717.70 253.39 719.40 276.00 C 720.38 292.50 722.78 309.05 728.04 324.76 C 728.85 332.08 730.19 339.58 729.17 346.94 C 728.54 351.86 721.34 353.05 718.62 349.29 C 716.08 345.57 715.15 341.05 714.13 336.74 C 712.00 326.56 711.05 316.19 709.43 305.93 C 702.87 259.50 706.93 212.53 706.32 165.86 Z" />
<path fill="#0a0804" d=" M 32.66 186.10 C 33.55 180.87 34.59 174.92 38.85 171.31 C 42.67 176.40 44.03 182.80 44.41 189.03 C 45.46 208.03 41.52 227.05 44.13 246.00 C 44.51 248.78 45.29 251.47 46.18 254.12 C 49.99 251.33 53.23 247.89 56.59 244.60 C 71.23 230.15 84.95 214.73 97.05 198.08 C 101.71 191.44 105.04 183.70 111.11 178.15 C 114.10 174.92 120.91 177.29 120.28 181.99 C 119.52 187.65 116.35 192.60 113.33 197.32 C 95.69 223.20 73.11 245.10 52.78 268.79 C 50.04 271.92 47.12 274.93 45.03 278.57 C 75.70 290.49 104.68 306.18 134.08 320.83 C 138.92 323.42 144.34 325.06 148.77 328.35 C 149.84 331.71 150.06 335.44 149.21 338.87 C 148.73 340.82 146.91 342.09 144.93 342.05 C 140.43 341.93 136.46 339.50 132.67 337.32 C 124.86 332.51 117.56 326.89 109.45 322.55 C 93.13 313.63 76.12 305.71 58.15 300.70 C 53.65 299.45 49.09 298.05 44.36 298.22 C 41.70 313.39 46.36 328.70 45.04 343.95 C 44.57 347.25 44.07 351.09 41.31 353.33 C 39.56 354.12 37.44 354.07 35.68 353.31 C 33.12 351.83 32.25 348.72 31.78 346.00 C 29.92 330.39 35.03 314.75 32.62 299.18 C 31.99 293.79 26.36 291.54 23.83 287.26 C 22.87 284.88 22.84 282.05 23.71 279.64 C 26.04 276.01 30.42 273.99 32.00 269.82 C 34.15 264.15 34.20 257.97 34.40 251.99 C 34.40 230.02 30.37 208.06 32.66 186.10 Z" />
<path fill="#fac802" d=" M 1288.26 174.98 C 1293.37 179.92 1297.01 186.10 1301.14 191.83 C 1321.81 223.02 1335.94 257.87 1349.36 292.63 C 1360.90 322.56 1371.64 352.82 1384.89 382.06 C 1387.15 387.37 1390.12 392.37 1391.98 397.86 C 1385.37 400.51 1377.69 401.76 1370.91 399.04 C 1364.56 396.37 1360.54 390.30 1357.77 384.26 C 1350.39 367.94 1349.13 349.60 1341.75 333.28 C 1339.54 328.72 1337.09 323.90 1332.81 320.95 C 1325.75 321.12 1319.09 324.15 1312.07 324.85 C 1304.96 326.16 1297.75 325.20 1290.79 323.55 C 1287.77 330.70 1287.49 338.65 1286.59 346.28 C 1285.09 362.55 1286.03 379.19 1282.21 395.16 C 1271.93 393.92 1261.50 397.39 1251.34 394.70 C 1251.18 386.02 1252.99 377.48 1253.79 368.87 C 1259.61 321.70 1270.46 275.37 1279.42 228.75 C 1282.85 210.91 1285.60 192.95 1288.26 174.98 Z" />
<path fill="#0a0804" d=" M 202.19 209.03 C 201.28 201.17 199.12 192.86 202.00 185.17 C 206.31 187.03 208.50 191.49 210.39 195.51 C 215.07 206.70 215.70 219.02 215.90 231.00 C 216.62 240.67 215.55 250.33 215.64 260.01 C 215.40 279.02 215.51 298.13 218.23 316.99 C 219.31 324.90 222.65 332.81 221.03 340.86 C 219.84 346.14 211.50 346.20 209.65 341.35 C 205.63 333.10 205.51 323.65 204.73 314.68 C 204.43 291.45 204.05 268.22 204.33 244.99 C 204.42 232.97 204.27 220.90 202.19 209.03 Z" />
<path fill="#b21f14" d=" M 719.22 208.06 C 718.31 205.88 721.20 205.63 720.93 207.89 C 720.50 207.93 719.64 208.02 719.22 208.06 Z" />
<path fill="#0a0804" d=" M 1299.80 245.79 C 1301.58 244.58 1303.89 245.49 1305.57 246.46 C 1310.42 249.50 1314.44 253.87 1317.12 258.93 C 1322.56 269.07 1326.62 280.02 1328.58 291.38 C 1329.25 295.10 1329.44 298.90 1328.96 302.65 C 1318.86 302.98 1307.90 302.57 1299.23 296.78 C 1297.12 295.11 1293.89 293.02 1294.89 289.88 C 1297.23 278.06 1294.57 265.95 1296.14 254.06 C 1296.60 251.08 1297.30 247.74 1299.80 245.79 Z" />
<path fill="#fefefe" d=" M 1101.25 311.27 C 1105.07 304.62 1108.58 297.68 1113.70 291.89 C 1120.43 308.76 1123.28 326.82 1126.22 344.64 C 1119.80 344.62 1113.37 344.36 1106.97 344.97 C 1099.14 345.48 1091.25 346.66 1083.44 345.40 C 1089.63 334.15 1095.07 322.52 1101.25 311.27 Z" />
<path fill="#fefefe" d=" M 1664.58 303.47 C 1673.72 303.62 1682.87 303.48 1692.00 302.82 C 1701.21 302.61 1710.87 302.68 1719.45 306.47 C 1725.52 336.84 1727.55 367.90 1734.29 398.15 C 1714.51 397.51 1694.78 395.16 1674.97 395.76 C 1672.33 385.47 1670.41 375.01 1668.83 364.51 C 1671.79 363.69 1674.73 362.79 1677.63 361.74 C 1675.60 357.88 1671.56 356.13 1667.61 354.96 C 1665.46 337.90 1664.29 320.67 1664.58 303.47 Z" />
<path fill="#b21f14" d=" M 1413.09 351.84 C 1413.06 344.94 1412.17 337.93 1413.88 331.14 C 1413.33 341.62 1413.00 352.30 1415.36 362.61 C 1417.81 373.32 1420.95 383.87 1424.93 394.12 C 1426.63 398.33 1427.66 402.96 1430.44 406.64 C 1434.77 408.36 1439.56 408.20 1444.14 408.71 C 1460.42 410.03 1476.87 409.60 1493.01 407.02 C 1508.24 404.59 1522.87 399.27 1536.57 392.27 C 1546.29 393.89 1556.19 393.46 1566.00 393.93 C 1583.71 394.64 1601.43 394.45 1619.15 394.83 C 1619.30 401.00 1619.18 407.80 1622.96 413.04 C 1626.31 417.54 1632.21 418.69 1637.40 419.69 C 1646.65 421.12 1656.11 421.04 1665.42 420.27 C 1670.46 419.47 1676.32 418.76 1679.88 414.69 C 1679.65 408.16 1676.03 402.21 1674.97 395.76 C 1694.78 395.16 1714.51 397.51 1734.29 398.15 C 1736.85 407.04 1738.38 416.33 1742.41 424.74 C 1749.53 426.45 1756.94 425.89 1764.17 425.27 C 1772.61 424.14 1781.13 422.91 1789.16 419.96 C 1788.29 415.64 1787.03 411.42 1785.85 407.18 C 1790.13 408.70 1794.61 410.23 1798.08 413.28 C 1799.67 416.46 1797.01 419.78 1794.33 421.31 C 1788.67 424.53 1782.30 426.19 1776.15 428.17 C 1746.36 437.63 1714.76 434.77 1684.00 435.43 C 1672.32 435.78 1660.65 436.49 1648.98 437.14 C 1620.64 438.26 1592.30 436.84 1563.98 435.73 C 1542.58 435.40 1520.96 434.76 1499.81 438.69 C 1508.18 441.13 1517.00 440.79 1525.61 441.44 C 1538.27 441.83 1550.96 442.23 1563.57 443.54 C 1572.90 444.71 1583.28 446.70 1589.56 454.39 C 1591.80 456.85 1592.57 461.36 1589.43 463.45 C 1583.63 466.92 1576.64 467.32 1570.13 468.47 C 1544.24 471.74 1518.11 473.41 1492.00 472.84 C 1466.66 472.61 1441.35 471.09 1416.01 471.80 C 1393.31 472.50 1370.77 475.88 1348.03 475.67 C 1321.67 475.50 1295.34 476.33 1269.00 477.08 C 1247.27 477.57 1225.58 475.74 1204.03 473.14 C 1179.49 470.77 1154.82 469.82 1130.33 466.83 C 1116.73 465.37 1103.13 463.12 1090.13 458.80 C 1084.93 456.90 1079.20 454.84 1075.97 450.06 C 1073.47 446.45 1074.97 441.70 1077.65 438.66 C 1082.85 432.64 1090.37 429.07 1097.99 427.18 C 1109.03 424.41 1120.26 422.42 1131.23 419.35 C 1133.78 418.63 1136.36 418.02 1138.98 417.57 C 1141.11 423.58 1142.64 429.84 1145.45 435.59 C 1146.28 437.91 1148.60 438.98 1150.95 439.06 C 1168.00 440.25 1184.03 431.90 1201.03 432.26 C 1205.41 432.41 1209.61 433.97 1214.00 434.15 C 1217.75 434.29 1221.78 431.00 1221.25 427.02 C 1220.71 422.28 1217.94 418.25 1216.00 414.01 C 1213.26 408.47 1212.01 402.38 1210.56 396.42 C 1207.96 385.66 1205.14 374.94 1203.10 364.05 C 1215.21 362.56 1227.41 361.79 1239.57 360.77 C 1237.79 376.09 1233.96 391.38 1235.38 406.90 C 1235.81 409.90 1236.69 414.17 1240.27 414.74 C 1247.34 415.27 1253.12 410.04 1260.00 409.34 C 1269.93 408.41 1280.20 410.96 1289.90 407.81 C 1293.36 406.62 1297.47 404.31 1297.21 400.06 C 1297.97 383.28 1298.82 366.48 1300.71 349.77 C 1300.61 352.13 1300.67 354.49 1300.75 356.85 C 1308.85 357.01 1316.89 355.85 1324.97 355.55 C 1328.22 355.38 1331.71 355.44 1334.46 353.41 C 1339.67 367.94 1342.02 383.32 1347.27 397.83 C 1350.13 404.95 1353.31 412.41 1359.32 417.48 C 1366.18 416.03 1372.90 413.62 1380.00 413.74 C 1390.98 413.38 1403.33 415.05 1412.66 407.90 C 1411.99 406.06 1411.34 404.23 1410.57 402.45 C 1402.68 385.84 1395.29 368.99 1388.30 351.99 C 1396.56 352.35 1404.82 351.87 1413.09 351.84 Z" />
<path fill="#b21f14" d=" M 1566.09 367.80 C 1573.51 358.65 1579.55 348.38 1583.55 337.28 C 1583.96 337.74 1584.78 338.66 1585.19 339.13 C 1590.80 339.43 1596.40 338.62 1602.02 339.07 C 1606.13 339.34 1610.28 339.51 1614.41 339.22 C 1616.15 350.47 1617.80 361.76 1618.82 373.10 C 1618.46 371.57 1618.06 370.07 1617.69 368.56 C 1607.46 368.21 1597.23 368.58 1587.01 368.14 C 1580.04 367.85 1573.06 367.43 1566.09 367.80 Z" />
<path fill="#fefefe" d=" M 1308.40 340.28 C 1314.19 339.39 1320.04 338.14 1325.93 338.54 C 1330.27 342.40 1332.05 348.28 1334.46 353.41 C 1331.71 355.44 1328.22 355.38 1324.97 355.55 C 1316.89 355.85 1308.85 357.01 1300.75 356.85 C 1300.67 354.49 1300.61 352.13 1300.71 349.77 C 1300.95 347.36 1301.20 344.93 1301.88 342.60 C 1303.59 340.94 1306.18 340.83 1308.40 340.28 Z" />
<path fill="#b21f14" d=" M 1072.28 363.82 C 1076.23 357.81 1079.82 351.60 1083.44 345.40 C 1091.25 346.66 1099.14 345.48 1106.97 344.97 C 1113.37 344.36 1119.80 344.62 1126.22 344.64 C 1127.31 350.77 1128.22 356.92 1128.84 363.12 C 1110.01 364.38 1091.12 363.18 1072.28 363.82 Z" />
<path fill="#b21f14" d=" M 1667.61 354.96 C 1671.56 356.13 1675.60 357.88 1677.63 361.74 C 1674.73 362.79 1671.79 363.69 1668.83 364.51 C 1668.34 361.33 1667.97 358.15 1667.61 354.96 Z" />
<path fill="#0a0804" d=" M 1852.39 362.70 C 1857.77 361.35 1863.50 360.66 1869.00 361.78 C 1877.01 363.97 1882.83 371.42 1884.50 379.37 C 1885.92 386.58 1884.57 394.32 1880.56 400.51 C 1873.76 411.28 1860.61 417.51 1847.98 416.46 C 1841.56 415.93 1835.48 412.31 1832.19 406.75 C 1828.01 399.65 1827.62 390.72 1829.98 382.95 C 1833.13 372.80 1842.27 365.29 1852.39 362.70 Z" />
<path fill="#fefefe" d=" M 1566.09 367.80 C 1573.06 367.43 1580.04 367.85 1587.01 368.14 C 1597.23 368.58 1607.46 368.21 1617.69 368.56 C 1618.06 370.07 1618.46 371.57 1618.82 373.10 C 1619.52 380.32 1619.15 387.59 1619.15 394.83 C 1601.43 394.45 1583.71 394.64 1566.00 393.93 C 1556.19 393.46 1546.29 393.89 1536.57 392.27 C 1547.66 385.82 1557.98 377.81 1566.09 367.80 Z" />
<path fill="#b21f14" d=" M 861.93 375.32 C 865.36 375.19 869.11 375.46 872.04 373.32 C 868.31 386.89 864.84 400.53 861.35 414.17 C 861.29 413.35 861.17 411.72 861.10 410.90 C 846.07 410.37 830.99 410.95 815.97 409.87 C 804.32 409.09 792.55 408.06 781.33 404.67 C 776.18 403.19 771.01 400.02 769.05 394.79 C 767.98 392.14 768.74 388.74 771.36 387.31 C 776.96 383.99 783.60 383.22 789.87 381.92 C 813.70 378.08 837.80 375.86 861.93 375.32 Z" />
<path fill="#b21f14" d=" M 1130.43 373.10 C 1131.65 382.14 1133.13 391.15 1134.79 400.13 C 1129.07 398.36 1123.40 396.41 1117.82 394.24 C 1114.70 392.90 1111.36 391.53 1109.15 388.85 C 1107.51 386.88 1107.98 383.55 1110.24 382.26 C 1115.27 378.98 1121.24 377.72 1126.89 375.93 C 1128.48 375.61 1129.41 374.23 1130.43 373.10 Z" />
<path fill="#fac802" d=" M 1858.45 373.64 C 1861.30 373.01 1864.66 372.99 1867.02 374.99 C 1870.15 377.57 1871.88 381.93 1871.11 385.94 C 1870.16 389.31 1867.69 391.93 1865.89 394.85 C 1864.38 397.05 1863.28 399.55 1861.50 401.55 C 1858.04 403.50 1853.83 403.69 1849.97 403.41 C 1845.93 403.09 1841.73 400.66 1840.58 396.59 C 1839.40 392.11 1841.28 387.52 1843.98 383.99 C 1847.61 379.22 1852.60 375.23 1858.45 373.64 Z" />
<path fill="#b21f14" d=" M 946.96 377.21 C 955.07 379.10 964.26 380.35 970.15 386.87 C 972.27 389.15 974.49 392.53 972.88 395.69 C 970.82 399.27 966.64 400.72 962.94 401.97 C 951.89 405.28 940.36 406.45 928.98 408.02 C 933.53 406.76 936.28 402.68 939.68 399.72 C 941.65 397.71 944.29 395.88 944.74 392.89 C 945.73 387.70 945.95 382.40 946.96 377.21 Z" />
<path fill="#b21f14" d=" M 1951.39 415.44 C 1965.31 415.13 1979.44 414.60 1993.13 417.71 C 1998.14 418.91 2003.26 420.43 2007.45 423.57 C 2009.74 425.27 2011.63 428.39 2010.32 431.27 C 2008.45 434.50 2004.42 435.36 2001.03 435.92 C 1985.75 437.72 1970.35 437.22 1955.01 437.27 C 1939.67 436.80 1924.15 436.88 1909.07 433.73 C 1904.97 432.84 1901.16 430.95 1897.03 430.31 C 1887.83 429.15 1878.42 429.66 1869.35 427.67 C 1866.95 427.03 1863.21 424.24 1865.45 421.61 C 1871.98 418.05 1879.71 417.45 1887.01 418.17 C 1908.50 418.44 1929.92 416.15 1951.39 415.44 Z" />
<path fill="#b21f14" d=" M 976.42 421.63 C 988.79 418.93 1001.64 421.90 1013.07 426.83 C 1016.67 428.62 1020.92 430.45 1022.69 434.34 C 1023.72 437.60 1020.40 439.77 1017.88 440.91 C 1010.40 444.20 1002.15 445.19 994.07 445.69 C 983.96 446.06 973.58 446.19 963.85 443.06 C 960.70 441.96 957.29 440.43 955.65 437.35 C 954.17 433.91 956.02 429.95 959.02 428.01 C 964.19 424.50 970.39 422.96 976.42 421.63 Z" />
<path fill="#b21f14" d=" M 1689.39 451.57 C 1696.77 450.92 1705.03 450.34 1711.62 454.33 C 1715.17 456.52 1711.94 461.21 1708.82 461.78 C 1704.28 462.66 1699.62 462.52 1695.03 462.52 C 1690.87 462.35 1686.48 462.32 1682.74 460.34 C 1680.59 459.42 1679.74 456.31 1681.57 454.67 C 1683.67 452.71 1686.62 452.04 1689.39 451.57 Z" />
</svg>
